<svg width="184" height="186" viewBox="0 0 184 186" fill="none" xmlns="http://www.w3.org/2000/svg">
<path d="M77.5692 122.354C77.585 122.355 77.6007 122.352 77.6154 122.346C77.6301 122.34 77.6435 122.331 77.6548 122.32C77.6661 122.308 77.6751 122.295 77.6813 122.28C77.6874 122.265 77.6906 122.249 77.6906 122.233V87.0834C77.6907 86.7163 77.8357 86.3642 78.0941 86.1041C78.8448 85.3516 79.3848 84.7806 79.714 84.3911C83.2191 80.2624 85.2708 74.7536 84.2689 69.4029C82.9425 62.3278 75.5599 56.7823 68.53 56.6638C62.7164 56.565 57.9329 59.2997 54.9274 64.3484C52.5041 68.4179 51.8691 72.717 53.0224 77.2455C53.8898 80.6622 55.6056 83.5323 58.17 85.8558C58.2712 85.9474 58.3522 86.0592 58.4076 86.1841C58.463 86.3091 58.4917 86.4443 58.4917 86.5811V89.0363C58.4917 89.0797 58.4744 89.1214 58.4438 89.1521C58.4131 89.1828 58.3714 89.2 58.328 89.2H30.8321C30.7648 89.2 30.7002 89.1733 30.6525 89.1256C30.6049 89.078 30.5781 89.0134 30.5781 88.946V13.2596C30.5781 13.1908 30.6055 13.1247 30.6542 13.076C30.7029 13.0274 30.7689 13 30.8378 13H105.302C105.368 13 105.431 13.0262 105.478 13.0727C105.524 13.1193 105.551 13.1825 105.551 13.2483V40.8684C105.55 40.8929 105.555 40.9171 105.565 40.9396C105.575 40.962 105.589 40.9823 105.606 40.9992C105.624 41.0161 105.645 41.0292 105.668 41.0378C105.691 41.0464 105.715 41.0502 105.74 41.049L107.224 40.9869C107.299 40.9851 107.371 40.9561 107.427 40.9051C108.974 39.5025 110.376 38.3793 112.425 37.4932C117.666 35.2298 124.126 35.6136 128.985 38.749C131.819 40.5777 133.839 43.128 135.047 46.3998C138.719 56.3562 132.31 67.1677 121.572 68.1865C116.368 68.6795 111.856 67.1433 108.037 63.578C107.805 63.3638 107.501 63.2449 107.187 63.245H105.692C105.665 63.245 105.639 63.2557 105.62 63.2748C105.601 63.2938 105.59 63.3196 105.59 63.3466L105.257 100.5V102.139C105.253 102.289 105.194 102.432 105.091 102.543C101.396 106.477 99.4265 112.034 100.64 117.379C101.885 122.857 105.807 127.016 111.133 128.865C114.63 130.08 118.171 130.092 121.755 128.899C126.914 127.183 130.752 122.668 132.2 117.447C133.91 111.272 131.221 105.43 126.468 101.409C126.422 101.37 126.386 101.321 126.361 101.267C126.336 101.212 126.323 101.152 126.324 101.092L126.578 90.2894C126.579 90.2494 126.595 90.2114 126.624 90.1834C126.652 90.1554 126.691 90.1398 126.731 90.1398H153.575C153.6 90.1398 153.624 90.1499 153.642 90.1679C153.66 90.1859 153.67 90.2103 153.67 90.2357V172.839C153.67 172.882 153.653 172.923 153.623 172.953C153.592 172.983 153.55 173 153.507 173H77.9389C77.876 173 77.8157 172.975 77.7713 172.931C77.7268 172.886 77.7019 172.826 77.7019 172.763V145.318C77.702 145.26 77.6803 145.204 77.641 145.162C77.6017 145.119 77.5478 145.094 77.4902 145.089C77.0424 145.055 76.7066 145.138 76.4827 145.338C75.0491 146.605 73.4122 147.892 71.7077 148.673C67.2826 150.703 62.8293 150.869 58.3478 149.17C48.2079 145.323 44.954 132.37 51.4731 123.923C55.7655 118.361 63.4643 116.583 70.0709 118.731C72.2269 119.431 74.2382 120.587 76.1045 122.199C76.1955 122.279 76.3116 122.324 76.4319 122.326L77.5692 122.354Z" fill="#FF5700"/>
</svg>
